<svg xmlns="http://www.w3.org/2000/svg" width="512" height="392.533" viewBox="0 0 512 392.533"><g transform="translate(0 -59.733)"><path d="M486.4,59.733H25.6A25.6,25.6,0,0,0,0,85.333V426.666a25.6,25.6,0,0,0,25.6,25.6H486.4a25.6,25.6,0,0,0,25.6-25.6V85.333A25.6,25.6,0,0,0,486.4,59.733Zm8.533,366.934A8.533,8.533,0,0,1,486.4,435.2H25.6a8.533,8.533,0,0,1-8.533-8.533V85.333A8.533,8.533,0,0,1,25.6,76.8H486.4a8.533,8.533,0,0,1,8.533,8.533V426.667Z" fill="#dcff18"/><path d="M470.076,93.9a8.529,8.529,0,0,0-6.229,1.966L266.982,261.239a17.068,17.068,0,0,1-21.965,0L48.154,95.863A8.534,8.534,0,0,0,37.18,108.936L234.044,274.3a34.091,34.091,0,0,0,43.913,0L474.82,108.937A8.535,8.535,0,0,0,470.076,93.9Z" fill="#dcff18"/><path d="M164.124,273.13a8.535,8.535,0,0,0-8.229,2.65l-119.467,128A8.533,8.533,0,1,0,48.9,415.419l119.467-128a8.533,8.533,0,0,0-4.247-14.289Z" fill="#dcff18"/><path d="M356.105,275.78a8.533,8.533,0,1,0-12.476,11.639l119.467,128a8.534,8.534,0,0,0,12.476-11.64Z" fill="#dcff18"/></g></svg>