<svg xmlns="http://www.w3.org/2000/svg" width="361.89" height="352.957" viewBox="0 0 361.89 352.957"><path d="M317.248,107.44c-99.906,0-180.928,81.011-180.928,180.962A180.978,180.978,0,0,0,260.064,460.088c9.053,1.655,12.352-3.921,12.352-8.72,0-4.3-.156-15.673-.244-30.78-50.331,10.942-60.95-24.249-60.95-24.249-8.231-20.905-20.095-26.47-20.095-26.47-16.429-11.23,1.244-11,1.244-11,18.162,1.277,27.715,18.639,27.715,18.639,16.14,27.659,42.355,19.672,52.663,15.04,1.644-11.7,6.321-19.672,11.486-24.193-40.178-4.565-82.422-20.083-82.422-89.431,0-19.75,7.054-35.9,18.628-48.553-1.866-4.577-8.076-22.972,1.777-47.887,0,0,15.185-4.865,49.753,18.55a171.593,171.593,0,0,1,90.6,0c34.546-23.416,49.708-18.55,49.708-18.55,9.875,24.915,3.666,43.31,1.811,47.887,11.6,12.652,18.595,28.8,18.595,48.553,0,69.514-42.311,84.81-82.622,89.287,6.5,5.587,12.286,16.64,12.286,33.513,0,24.193-.222,43.71-.222,49.642,0,4.832,3.266,10.464,12.441,8.7A180.973,180.973,0,0,0,317.248,107.44Z" transform="translate(-136.32 -107.44)" fill="#dcff18" fill-rule="evenodd"/></svg>